<svg width="960" height="600" viewBox="0 0 960 600" fill="none" xmlns="http://www.w3.org/2000/svg">
  <rect width="960" height="600" rx="36" fill="#F6FBFE"/>
  <rect x="44" y="44" width="872" height="512" rx="28" stroke="#C9DCEB" stroke-width="4"/>
  <text x="60" y="92" fill="#2A5278" font-size="34" font-family="Arial, sans-serif" font-weight="700">PKG Video Captioning</text>
  <rect x="78" y="170" width="188" height="214" rx="24" fill="#DDEBF6"/>
  <rect x="338" y="138" width="210" height="118" rx="20" fill="#4E7FA8"/>
  <rect x="338" y="308" width="210" height="118" rx="20" fill="#6697BE"/>
  <rect x="622" y="170" width="258" height="214" rx="26" fill="#EEF5FB" stroke="#A9C4D9" stroke-width="4"/>
  <path d="M266 278H314" stroke="#7B9FBE" stroke-width="8" stroke-linecap="round"/>
  <path d="M548 196H594" stroke="#7B9FBE" stroke-width="8" stroke-linecap="round"/>
  <path d="M548 366H594" stroke="#7B9FBE" stroke-width="8" stroke-linecap="round"/>
  <rect x="102" y="200" width="42" height="148" rx="12" fill="#9CBFDC"/>
  <rect x="156" y="184" width="42" height="164" rx="12" fill="#7EA8C8"/>
  <rect x="210" y="216" width="28" height="132" rx="10" fill="#4E7FA8"/>
  <text x="106" y="395" fill="#355C80" font-size="24" font-family="Arial, sans-serif">Video Clips</text>
  <text x="384" y="208" fill="white" font-size="24" font-family="Arial, sans-serif">Pseudo Label</text>
  <text x="397" y="242" fill="white" font-size="24" font-family="Arial, sans-serif">Generator</text>
  <text x="374" y="378" fill="white" font-size="24" font-family="Arial, sans-serif">Keyword Refiner</text>
  <text x="700" y="236" fill="#2A5278" font-size="24" font-family="Arial, sans-serif" font-weight="700">Caption Decoder</text>
  <text x="684" y="288" fill="#2A5278" font-size="22" font-family="Arial, sans-serif">Few-Supervised</text>
  <text x="676" y="322" fill="#2A5278" font-size="22" font-family="Arial, sans-serif">Semantic Caption</text>
</svg>
